<svg style="position: absolute; width: 0; height: 0; overflow: hidden;" version="1.1" xmlns="http://www.w3.org/2000/svg" xmlns:xlink="http://www.w3.org/1999/xlink">
<defs>






<symbol id="icon-close" width="24" height="24" viewBox="0 0 24 24" fill="none" ><path d="M6.2253 4.81108C5.83477 4.42056 5.20161 4.42056 4.81108 4.81108C4.42056 5.20161 4.42056 5.83477 4.81108 6.2253L10.5858 12L4.81114 17.7747C4.42062 18.1652 4.42062 18.7984 4.81114 19.1889C5.20167 19.5794 5.83483 19.5794 6.22535 19.1889L12 13.4142L17.7747 19.1889C18.1652 19.5794 18.7984 19.5794 19.1889 19.1889C19.5794 18.7984 19.5794 18.1652 19.1889 17.7747L13.4142 12L19.189 6.2253C19.5795 5.83477 19.5795 5.20161 19.189 4.81108C18.7985 4.42056 18.1653 4.42056 17.7748 4.81108L12 10.5858L6.2253 4.81108Z" fill="currentColor" /></symbol>
<symbol id="icon-menu" width="24" height="24" viewBox="0 0 24 24" fill="none" ><path d="M2 6C2 5.44772 2.44772 5 3 5H21C21.5523 5 22 5.44772 22 6C22 6.55228 21.5523 7 21 7H3C2.44772 7 2 6.55228 2 6Z" fill="currentColor" /><path d="M2 12.0322C2 11.4799 2.44772 11.0322 3 11.0322H21C21.5523 11.0322 22 11.4799 22 12.0322C22 12.5845 21.5523 13.0322 21 13.0322H3C2.44772 13.0322 2 12.5845 2 12.0322Z" fill="currentColor" /><path d="M3 17.0645C2.44772 17.0645 2 17.5122 2 18.0645C2 18.6167 2.44772 19.0645 3 19.0645H21C21.5523 19.0645 22 18.6167 22 18.0645C22 17.5122 21.5523 17.0645 21 17.0645H3Z" fill="currentColor" /></symbol>
<symbol id="icon-search" width="24" height="24" viewBox="0 0 24 24" fill="none" ><path fill-rule="evenodd" clip-rule="evenodd" d="M18.319 14.4326C20.7628 11.2941 20.542 6.75347 17.6569 3.86829C14.5327 0.744098 9.46734 0.744098 6.34315 3.86829C3.21895 6.99249 3.21895 12.0578 6.34315 15.182C9.22833 18.0672 13.769 18.2879 16.9075 15.8442C16.921 15.8595 16.9351 15.8745 16.9497 15.8891L21.1924 20.1317C21.5829 20.5223 22.2161 20.5223 22.6066 20.1317C22.9971 19.7412 22.9971 19.1081 22.6066 18.7175L18.364 14.4749C18.3493 14.4603 18.3343 14.4462 18.319 14.4326ZM16.2426 5.28251C18.5858 7.62565 18.5858 11.4246 16.2426 13.7678C13.8995 16.1109 10.1005 16.1109 7.75736 13.7678C5.41421 11.4246 5.41421 7.62565 7.75736 5.28251C10.1005 2.93936 13.8995 2.93936 16.2426 5.28251Z" fill="currentColor" /></symbol>



<symbol id="icon-up" width="24" height="24" viewBox="0 0 24 24"><path d="M17.6569 16.2427L19.0711 14.8285L12.0001 7.75739L4.92896 14.8285L6.34317 16.2427L12.0001 10.5858L17.6569 16.2427Z" fill="currentColor" /></symbol>
<symbol id="icon-right" width="24" height="24" viewBox="0 0 24 24"><path d="M10.5858 6.34317L12 4.92896L19.0711 12L12 19.0711L10.5858 17.6569L16.2427 12L10.5858 6.34317Z" fill="currentColor" /></symbol>
<symbol id="icon-down" width="24" height="24" viewBox="0 0 24 24"><path d="M6.34317 7.75732L4.92896 9.17154L12 16.2426L19.0711 9.17157L17.6569 7.75735L12 13.4142L6.34317 7.75732Z" fill="currentColor" /></symbol>
<symbol id="icon-left" width="24" height="24" viewBox="0 0 24 24"><path d="M16.2426 6.34317L14.8284 4.92896L7.75739 12L14.8285 19.0711L16.2427 17.6569L10.5858 12L16.2426 6.34317Z" fill="currentColor" /></symbol>



<symbol id="icon-arrow-up" width="24" height="24" viewBox="0 0 24 24" fill="none" ><path d="M17.6568 8.96219L16.2393 10.3731L12.9843 7.10285L12.9706 20.7079L10.9706 20.7059L10.9843 7.13806L7.75404 10.3532L6.34314 8.93572L12.0132 3.29211L17.6568 8.96219Z" fill="currentColor" /></symbol>
<symbol id="icon-arrow-right" width="24" height="24" viewBox="0 0 24 24" fill="none" ><path d="M15.0378 6.34317L13.6269 7.76069L16.8972 11.0157L3.29211 11.0293L3.29413 13.0293L16.8619 13.0157L13.6467 16.2459L15.0643 17.6568L20.7079 11.9868L15.0378 6.34317Z" fill="currentColor" /></symbol>
<symbol id="icon-arrow-down" width="24" height="24" viewBox="0 0 24 24" fill="none" ><path d="M11.0001 3.67157L13.0001 3.67157L13.0001 16.4999L16.2426 13.2574L17.6568 14.6716L12 20.3284L6.34314 14.6716L7.75735 13.2574L11.0001 16.5001L11.0001 3.67157Z" fill="currentColor" /></symbol>
<symbol id="icon-arrow-left" width="24" height="24" viewBox="0 0 24 24" fill="none" ><path d="M20.3284 11.0001V13.0001L7.50011 13.0001L10.7426 16.2426L9.32842 17.6568L3.67157 12L9.32842 6.34314L10.7426 7.75735L7.49988 11.0001L20.3284 11.0001Z" fill="currentColor" /></symbol>
<symbol id="icon-cart" width="24" height="24" viewBox="0 0 24 24" fill="none" ><path fill-rule="evenodd" clip-rule="evenodd" d="M5.79166 2H1V4H4.2184L6.9872 16.6776H7V17H20V16.7519L22.1932 7.09095L22.5308 6H6.6552L6.08485 3.38852L5.79166 2ZM19.9869 8H7.092L8.62081 15H18.3978L19.9869 8Z" fill="currentColor" /><path d="M10 22C11.1046 22 12 21.1046 12 20C12 18.8954 11.1046 18 10 18C8.89543 18 8 18.8954 8 20C8 21.1046 8.89543 22 10 22Z" fill="currentColor" /><path d="M19 20C19 21.1046 18.1046 22 17 22C15.8954 22 15 21.1046 15 20C15 18.8954 15.8954 18 17 18C18.1046 18 19 18.8954 19 20Z" fill="currentColor" /></symbol>
<symbol id="icon-user" width="24" height="24" viewBox="0 0 24 24" fill="none" ><path fill-rule="evenodd" clip-rule="evenodd" d="M16 7C16 9.20914 14.2091 11 12 11C9.79086 11 8 9.20914 8 7C8 4.79086 9.79086 3 12 3C14.2091 3 16 4.79086 16 7ZM14 7C14 8.10457 13.1046 9 12 9C10.8954 9 10 8.10457 10 7C10 5.89543 10.8954 5 12 5C13.1046 5 14 5.89543 14 7Z" fill="currentColor" /><path d="M16 15C16 14.4477 15.5523 14 15 14H9C8.44772 14 8 14.4477 8 15V21H6V15C6 13.3431 7.34315 12 9 12H15C16.6569 12 18 13.3431 18 15V21H16V15Z" fill="currentColor" /></symbol>
<symbol id="icon-profile" width="24" height="24" viewBox="0 0 24 24" fill="none" ><path fill-rule="evenodd" clip-rule="evenodd" d="M16 9C16 11.2091 14.2091 13 12 13C9.79086 13 8 11.2091 8 9C8 6.79086 9.79086 5 12 5C14.2091 5 16 6.79086 16 9ZM14 9C14 10.1046 13.1046 11 12 11C10.8954 11 10 10.1046 10 9C10 7.89543 10.8954 7 12 7C13.1046 7 14 7.89543 14 9Z" fill="currentColor" /><path fill-rule="evenodd" clip-rule="evenodd" d="M12 1C5.92487 1 1 5.92487 1 12C1 18.0751 5.92487 23 12 23C18.0751 23 23 18.0751 23 12C23 5.92487 18.0751 1 12 1ZM3 12C3 14.0902 3.71255 16.014 4.90798 17.5417C6.55245 15.3889 9.14627 14 12.0645 14C14.9448 14 17.5092 15.3531 19.1565 17.4583C20.313 15.9443 21 14.0524 21 12C21 7.02944 16.9706 3 12 3C7.02944 3 3 7.02944 3 12ZM12 21C9.84977 21 7.87565 20.2459 6.32767 18.9878C7.59352 17.1812 9.69106 16 12.0645 16C14.4084 16 16.4833 17.1521 17.7538 18.9209C16.1939 20.2191 14.1881 21 12 21Z" fill="currentColor" /></symbol>


<symbol id="icon-user-account" width="24" height="24" viewBox="0 0 24 24" fill="none" ><clipPath id="b"><rect width="24" height="24"/></clipPath><rect width="24" height="24" fill="#fff"/><path fill-rule="evenodd" clip-rule="evenodd" d="M16,7a4,4,0,1,1-4-4A4,4,0,0,1,16,7ZM14,7a2,2,0,1,1-2-2A2,2,0,0,1,14,7Z" fill="currentColor"/><path fill-rule="evenodd" clip-rule="evenodd" d="M16,4a8,8,0,0,0,0,16V18a5.808,5.808,0,0,1-5.99-6A5.808,5.808,0,0,1,16,6Z" transform="translate(24 4) rotate(90)" fill="currentColor"/></symbol>




<symbol id="icon-quote" width="24" height="24" viewBox="0 0 24 24" fill="none" ><path d="M9.13456 9H12.1346L10 14.6075H7L9.13456 9Z" fill="currentColor" /><path d="M14.1346 9H17.1346L15 14.6075H12L14.1346 9Z" fill="currentColor" /></symbol>
</defs>
</svg>